<svg width="711.602" height="177.752" viewBox="0 0 711.602 177.752" xmlns="http://www.w3.org/2000/svg">
	<g id="svgGroup" stroke-linecap="round" fill-rule="evenodd" font-size="9pt" stroke="#000" stroke-width="0.25mm" fill="none" style="stroke:#000;stroke-width:0.25mm;fill:none">
		<path d="M 64.801 42.901 L 64.351 42.151 Q 65.497 40.661 65.768 37.069 A 32.364 32.364 0 0 0 65.851 34.651 Q 65.851 26.101 58.651 21.226 A 28.438 28.438 0 0 0 44.559 16.448 A 35.418 35.418 0 0 0 41.926 16.351 A 28.736 28.736 0 0 0 35.657 16.996 Q 31.347 17.959 28.16 20.361 A 17.495 17.495 0 0 0 26.851 21.451 Q 21.301 26.551 21.301 33.901 A 26.415 26.415 0 0 0 21.837 39.365 Q 22.646 43.193 24.676 46.126 Q 28.051 51.001 33.451 53.701 A 79.259 79.259 0 0 0 41.023 56.986 A 95.996 95.996 0 0 0 45.376 58.501 Q 51.901 60.601 58.426 63.076 A 63.498 63.498 0 0 1 67.935 67.584 A 56.774 56.774 0 0 1 70.351 69.076 Q 75.751 72.601 79.126 79.051 Q 82.501 85.501 82.501 94.651 A 35.949 35.949 0 0 1 81.045 105.166 A 27.096 27.096 0 0 1 71.101 119.251 A 41.864 41.864 0 0 1 53.77 126.768 A 58.422 58.422 0 0 1 42.526 127.801 A 56.543 56.543 0 0 1 26.243 125.538 A 47.715 47.715 0 0 1 12.676 119.026 A 34.566 34.566 0 0 1 5.723 112.791 A 23.9 23.9 0 0 1 0.001 97.051 A 25.534 25.534 0 0 1 0.259 93.298 Q 0.549 91.355 1.162 89.766 A 11.739 11.739 0 0 1 2.401 87.376 A 10.437 10.437 0 0 1 3.905 85.594 Q 5.781 83.851 8.101 83.851 A 27.493 27.493 0 0 1 10.459 83.944 Q 12.831 84.15 14.231 84.805 A 3.961 3.961 0 0 1 15.601 85.801 L 16.051 86.551 A 20.992 20.992 0 0 0 15.128 90.148 Q 14.821 91.956 14.735 94.034 A 40.166 40.166 0 0 0 14.701 95.701 Q 14.701 105.901 23.026 113.551 A 28.427 28.427 0 0 0 37.245 120.518 A 40.467 40.467 0 0 0 44.851 121.201 Q 54.601 121.201 61.651 114.376 A 22.933 22.933 0 0 0 67.228 106.146 A 22.525 22.525 0 0 0 68.701 97.951 A 25.618 25.618 0 0 0 68.02 91.906 A 19.596 19.596 0 0 0 65.326 85.651 Q 61.951 80.551 56.626 77.701 A 77.477 77.477 0 0 0 49.152 74.219 A 93.323 93.323 0 0 0 44.851 72.601 Q 38.401 70.351 31.951 68.026 A 68.355 68.355 0 0 1 23.26 64.219 A 59.346 59.346 0 0 1 20.176 62.476 A 25.059 25.059 0 0 1 11.906 54.254 A 29.394 29.394 0 0 1 11.476 53.551 A 23.55 23.55 0 0 1 8.658 45.936 A 32.716 32.716 0 0 1 8.101 39.751 A 30.375 30.375 0 0 1 9.669 29.768 A 25.324 25.324 0 0 1 18.376 17.851 A 36.838 36.838 0 0 1 33.071 11.114 Q 38.393 9.92 44.579 9.901 A 65.143 65.143 0 0 1 44.776 9.901 Q 60.901 9.901 70.501 17.251 A 33.241 33.241 0 0 1 75.249 21.613 Q 80.101 27.116 80.101 33.301 Q 80.101 39.187 77.863 42.114 A 7.536 7.536 0 0 1 77.776 42.226 A 9.008 9.008 0 0 1 76.09 43.884 A 6.233 6.233 0 0 1 72.301 45.151 A 23.85 23.85 0 0 1 69.943 45.043 Q 66.09 44.659 64.801 42.901 Z" id="0" vector-effect="non-scaling-stroke"/>
		<path d="M 102.601 55.201 L 102.601 98.251 Q 102.601 106.801 105.901 111.151 A 10.504 10.504 0 0 0 113.514 115.433 A 13.846 13.846 0 0 0 114.901 115.501 Q 119.443 115.501 123.509 111.12 A 25.849 25.849 0 0 0 125.551 108.601 A 21.087 21.087 0 0 0 128.318 103 Q 130.175 97.48 130.452 89.233 A 88.742 88.742 0 0 0 130.501 86.251 A 1.036 1.036 0 0 1 131.013 85.67 Q 131.436 85.436 132.173 85.374 A 6.869 6.869 0 0 1 132.751 85.351 Q 135.173 85.351 135.422 91.75 A 39.954 39.954 0 0 1 135.451 93.301 Q 135.451 104.851 129.151 113.101 A 22.33 22.33 0 0 1 123.703 118.288 A 18.866 18.866 0 0 1 113.101 121.351 A 32.46 32.46 0 0 1 106.115 120.648 Q 101.73 119.681 98.495 117.385 A 17.867 17.867 0 0 1 95.026 114.151 Q 89.101 106.951 89.101 93.751 L 89.101 62.251 Q 89.101 57.751 91.351 55.426 Q 93.601 53.101 97.051 53.101 A 9.195 9.195 0 0 1 99.529 53.418 A 6.884 6.884 0 0 1 102.601 55.201 Z M 87.152 32.218 A 8.54 8.54 0 0 0 89.701 38.401 A 8.561 8.561 0 0 0 92.453 40.273 A 9.074 9.074 0 0 0 96.001 40.951 Q 99.751 40.951 102.376 38.401 A 8.592 8.592 0 0 0 104.238 35.795 A 8.799 8.799 0 0 0 105.001 32.101 A 10.641 10.641 0 0 0 105 31.984 A 8.666 8.666 0 0 0 102.376 25.726 Q 99.751 23.101 96.001 23.101 A 10.556 10.556 0 0 0 95.768 23.104 A 8.404 8.404 0 0 0 89.701 25.726 Q 87.151 28.351 87.151 32.101 A 10.943 10.943 0 0 0 87.152 32.218 Z" id="1" vector-effect="non-scaling-stroke"/>
		<path d="M 144.451 95.401 L 144.451 119.251 A 4.578 4.578 0 0 1 142.243 120.882 Q 141.45 121.175 140.46 121.285 A 11.415 11.415 0 0 1 139.201 121.351 A 9.798 9.798 0 0 1 136.55 121.01 A 7.324 7.324 0 0 1 133.201 119.026 A 7.405 7.405 0 0 1 131.487 116.077 Q 131.119 114.923 131.003 113.524 A 16.121 16.121 0 0 1 130.951 112.201 L 130.951 55.201 A 4.578 4.578 0 0 1 133.159 53.57 Q 133.952 53.277 134.942 53.167 A 11.415 11.415 0 0 1 136.201 53.101 A 9.798 9.798 0 0 1 138.852 53.442 A 7.324 7.324 0 0 1 142.201 55.426 A 7.405 7.405 0 0 1 143.915 58.375 Q 144.283 59.529 144.399 60.928 A 16.121 16.121 0 0 1 144.451 62.251 L 144.451 73.651 A 50.238 50.238 0 0 1 148.28 65.954 Q 150.658 62.121 153.449 59.635 A 17.112 17.112 0 0 1 165.151 55.051 Q 174.601 55.051 178.951 60.076 Q 183.301 65.101 183.301 72.001 A 10.145 10.145 0 0 1 182.985 74.603 A 7.386 7.386 0 0 1 181.051 78.001 A 10.807 10.807 0 0 1 179.763 79.114 Q 179.04 79.638 178.333 79.921 A 4.374 4.374 0 0 1 176.701 80.251 Q 172.801 80.251 171.601 78.451 Q 172.501 76.201 172.501 72.001 A 11.642 11.642 0 0 0 169.912 64.676 A 14.688 14.688 0 0 0 169.651 64.351 A 10.301 10.301 0 0 0 167.267 62.199 A 8.219 8.219 0 0 0 162.751 60.901 A 8.6 8.6 0 0 0 157.362 62.935 Q 153.461 66.008 150.076 73.726 A 90.142 90.142 0 0 0 147.11 81.354 Q 144.451 89.317 144.451 95.401 Z" id="2" vector-effect="non-scaling-stroke"/>
		<path d="M 246.301 55.201 L 246.301 98.251 A 43.807 43.807 0 0 0 246.515 102.728 Q 247.012 107.553 248.666 110.577 A 12.117 12.117 0 0 0 249.001 111.151 A 10.434 10.434 0 0 0 251.035 113.583 A 7.879 7.879 0 0 0 256.351 115.501 Q 268.483 115.501 270.176 93.845 A 97.781 97.781 0 0 0 270.451 86.251 A 0.809 0.809 0 0 1 270.877 85.679 Q 271.431 85.353 272.688 85.351 A 9.569 9.569 0 0 1 272.701 85.351 Q 275.123 85.351 275.372 91.75 A 39.954 39.954 0 0 1 275.401 93.301 Q 275.401 102.913 272.289 109.627 A 25.158 25.158 0 0 1 269.926 113.701 A 17.438 17.438 0 0 1 257.248 121.2 A 23.407 23.407 0 0 1 254.551 121.351 A 26.157 26.157 0 0 1 246.645 120.236 Q 238.656 117.709 235.04 109.46 A 27.089 27.089 0 0 1 234.451 108.001 A 26.463 26.463 0 0 1 230.58 114.113 A 22.792 22.792 0 0 1 226.651 117.751 Q 221.701 121.351 215.401 121.351 Q 189.151 121.351 189.151 87.001 Q 189.151 76.137 192.338 68.84 A 24.354 24.354 0 0 1 197.326 61.351 A 27.397 27.397 0 0 1 212.964 53.555 A 38.699 38.699 0 0 1 219.001 53.101 Q 228.494 53.101 232.939 56.76 A 10.632 10.632 0 0 1 233.701 57.451 A 8.945 8.945 0 0 1 235.053 55.264 A 6.115 6.115 0 0 1 239.926 53.101 Q 242.698 53.101 244.556 53.984 A 6.218 6.218 0 0 1 246.301 55.201 Z M 232.651 95.251 L 232.651 74.701 A 22.037 22.037 0 0 0 232.134 69.793 A 15.085 15.085 0 0 0 228.976 63.301 A 14.79 14.79 0 0 0 226.467 60.915 A 9.499 9.499 0 0 0 220.726 58.951 Q 216.176 58.951 213.481 59.841 A 11.275 11.275 0 0 0 213.451 59.851 Q 210.751 60.751 208.351 63.601 A 13.019 13.019 0 0 0 205.972 67.6 Q 203.51 73.755 203.406 85.909 A 126.739 126.739 0 0 0 203.401 87.001 Q 203.401 98.851 205.501 105.451 Q 207.091 110.45 209.026 112.652 A 6.069 6.069 0 0 0 210.301 113.776 Q 213.001 115.501 217.501 115.501 A 8.716 8.716 0 0 0 221.067 114.677 Q 224.04 113.348 227.326 109.876 A 19.135 19.135 0 0 0 232.318 99.54 A 26.611 26.611 0 0 0 232.651 95.251 Z" id="3" vector-effect="non-scaling-stroke"/>
		<path d="M 284.101 55.201 L 284.101 138.151 Q 285.834 138.007 289.513 138.001 A 196.823 196.823 0 0 1 289.801 138.001 A 6.718 6.718 0 0 1 291.261 138.145 Q 293.701 138.691 293.701 141.301 L 292.801 143.551 Q 287.003 143.551 284.152 143.698 A 53.649 53.649 0 0 0 284.101 143.701 L 284.101 146.851 A 54.715 54.715 0 0 1 283.439 155.639 Q 282.655 160.448 280.943 164.33 A 26.512 26.512 0 0 1 277.951 169.501 Q 271.801 177.751 261.451 177.751 Q 255.451 177.751 250.801 173.851 A 12.017 12.017 0 0 1 247.173 168.395 Q 246.486 166.389 246.261 163.921 A 27.741 27.741 0 0 1 246.151 161.401 Q 246.151 152.859 252.813 147.461 A 21.955 21.955 0 0 1 252.826 147.451 A 32.884 32.884 0 0 1 260.331 142.959 Q 263.883 141.398 268.153 140.349 A 61.2 61.2 0 0 1 270.601 139.801 L 270.601 62.251 Q 270.601 57.751 272.851 55.426 Q 275.101 53.101 278.551 53.101 A 9.195 9.195 0 0 1 281.029 53.418 A 6.884 6.884 0 0 1 284.101 55.201 Z M 270.601 153.001 L 270.601 145.501 A 37.889 37.889 0 0 0 264.055 147.668 Q 260.61 149.204 258.323 151.309 A 13.704 13.704 0 0 0 253.801 161.851 A 20.245 20.245 0 0 0 254.093 165.457 Q 255.265 171.901 261.151 171.901 A 8.917 8.917 0 0 0 264.281 171.378 Q 266.552 170.533 267.988 168.323 A 10.036 10.036 0 0 0 268.276 167.851 Q 270.601 163.801 270.601 153.001 Z M 268.652 23.968 A 8.54 8.54 0 0 0 271.201 30.151 A 8.561 8.561 0 0 0 273.953 32.023 A 9.074 9.074 0 0 0 277.501 32.701 Q 281.251 32.701 283.876 30.151 A 8.592 8.592 0 0 0 285.738 27.545 A 8.799 8.799 0 0 0 286.501 23.851 A 10.641 10.641 0 0 0 286.5 23.734 A 8.666 8.666 0 0 0 283.876 17.476 Q 281.251 14.851 277.501 14.851 Q 273.78 14.851 271.241 17.435 A 9.919 9.919 0 0 0 271.201 17.476 Q 268.651 20.101 268.651 23.851 A 10.943 10.943 0 0 0 268.652 23.968 Z" id="4" vector-effect="non-scaling-stroke"/>
		<path d="M 431.401 22.801 L 430.501 16.651 Q 431.813 14.683 434.847 14.436 A 11.169 11.169 0 0 1 435.751 14.401 Q 439.501 14.401 442.351 17.101 A 8.097 8.097 0 0 1 444.336 20.193 Q 444.823 21.489 445.036 23.101 A 20.681 20.681 0 0 1 445.201 25.801 A 57.559 57.559 0 0 1 440.849 48.32 A 54.962 54.962 0 0 1 434.851 59.026 Q 424.501 73.501 413.101 76.501 Q 420.751 77.251 426.676 81.376 Q 432.601 85.501 436.426 91.576 Q 440.251 97.651 443.626 104.776 Q 447.001 111.901 450.376 118.876 Q 453.751 125.851 457.801 131.626 Q 461.851 137.401 468.076 140.926 A 27.163 27.163 0 0 0 478.409 144.224 A 34.228 34.228 0 0 0 482.401 144.451 A 15.379 15.379 0 0 0 485.011 144.242 Q 487.046 143.892 488.551 142.951 A 3.074 3.074 0 0 1 489.509 143.156 Q 490.458 143.542 490.71 144.626 A 3.87 3.87 0 0 1 490.801 145.501 A 4.021 4.021 0 0 1 488.377 149.225 Q 486.405 150.26 482.828 150.517 A 35.449 35.449 0 0 1 480.301 150.601 A 48.345 48.345 0 0 1 469.816 149.508 A 39.051 39.051 0 0 1 461.551 146.701 A 40.742 40.742 0 0 1 453.266 141.554 A 34.173 34.173 0 0 1 448.201 136.501 Q 443.101 130.201 438.976 122.626 Q 434.851 115.051 431.251 107.551 A 144.031 144.031 0 0 0 426.124 97.806 A 122.028 122.028 0 0 0 423.676 93.751 Q 419.701 87.451 413.551 83.551 Q 407.401 79.651 399.451 79.651 Q 396.118 79.651 395.43 77.006 A 6.188 6.188 0 0 1 395.251 75.451 A 3.027 3.027 0 0 1 395.818 73.701 A 4.516 4.516 0 0 1 396.451 72.976 Q 397.651 71.851 398.851 71.851 A 22.648 22.648 0 0 0 412.769 67.041 A 31.24 31.24 0 0 0 415.951 64.276 Q 423.601 56.701 427.501 45.601 Q 431.401 34.501 431.401 22.801 Z M 387.901 10.201 L 387.901 95.251 A 68.092 68.092 0 0 1 387.232 105.105 Q 386.489 110.179 384.919 114.353 A 32.003 32.003 0 0 1 381.976 120.301 A 19.077 19.077 0 0 1 368.218 129.301 A 26.862 26.862 0 0 1 364.126 129.601 A 41.384 41.384 0 0 1 357.409 129.093 Q 350.373 127.933 346.201 124.126 A 18.132 18.132 0 0 1 340.301 111.913 A 25.089 25.089 0 0 1 340.201 109.651 A 26.629 26.629 0 0 1 340.465 105.726 Q 341.205 100.784 344.026 99.045 A 6.868 6.868 0 0 1 347.701 98.101 A 6.08 6.08 0 0 1 349.462 98.348 A 5.185 5.185 0 0 1 350.851 99.001 A 6.54 6.54 0 0 1 352.478 100.571 A 8.41 8.41 0 0 1 353.101 101.551 A 14.363 14.363 0 0 0 352.468 103.813 Q 351.901 106.623 351.901 110.851 A 18.743 18.743 0 0 0 352.232 114.491 Q 352.934 118.034 355.126 120.226 A 10.883 10.883 0 0 0 362.388 123.423 A 14.486 14.486 0 0 0 363.301 123.451 A 8.896 8.896 0 0 0 371.806 117.872 Q 373.758 113.814 374.05 106.805 A 61.479 61.479 0 0 0 374.101 104.251 L 374.101 17.251 Q 374.101 12.751 376.351 10.426 A 7.594 7.594 0 0 1 378.985 8.616 A 7.356 7.356 0 0 1 381.751 8.101 A 9.9 9.9 0 0 1 386.154 9.163 A 13.149 13.149 0 0 1 387.901 10.201 Z" id="6" vector-effect="non-scaling-stroke"/>
		<path d="M 507.751 97.501 L 507.751 76.201 Q 507.751 65.586 504.568 61.283 A 6.872 6.872 0 0 0 498.751 58.351 A 13.862 13.862 0 0 0 488.271 63.075 A 22.494 22.494 0 0 0 485.701 66.451 Q 480.601 74.551 480.601 93.601 L 480.601 119.251 A 4.578 4.578 0 0 1 478.393 120.882 Q 477.6 121.175 476.61 121.285 A 11.415 11.415 0 0 1 475.351 121.351 A 9.798 9.798 0 0 1 472.7 121.01 A 7.324 7.324 0 0 1 469.351 119.026 A 7.405 7.405 0 0 1 467.637 116.077 Q 467.269 114.923 467.153 113.524 A 16.121 16.121 0 0 1 467.101 112.201 L 467.101 37.051 Q 467.101 17.551 470.851 8.776 Q 474.601 0.001 485.251 0.001 A 10.746 10.746 0 0 1 489.607 0.855 Q 491.946 1.88 493.632 4.132 A 13.183 13.183 0 0 1 494.101 4.801 A 16.66 16.66 0 0 1 496.081 9.169 Q 496.721 11.296 497.011 13.873 A 41.044 41.044 0 0 1 497.251 18.451 Q 497.251 31.17 486.794 44.267 A 83.135 83.135 0 0 1 480.601 51.151 L 480.601 64.351 A 21.892 21.892 0 0 1 487.335 56.785 Q 492.74 53.101 500.551 53.101 A 25.044 25.044 0 0 1 507.305 53.966 A 18.697 18.697 0 0 1 516.076 59.251 Q 521.851 65.401 521.851 76.951 L 521.851 98.251 A 43.807 43.807 0 0 0 522.065 102.728 Q 522.562 107.553 524.216 110.577 A 12.117 12.117 0 0 0 524.551 111.151 Q 527.251 115.501 532.501 115.501 A 8.062 8.062 0 0 0 537.433 113.748 Q 539.797 111.966 541.876 108.376 A 24.263 24.263 0 0 0 544.117 102.928 Q 545.728 97.336 545.961 89.116 A 100.903 100.903 0 0 0 546.001 86.251 A 0.809 0.809 0 0 1 546.427 85.679 Q 546.981 85.353 548.238 85.351 A 9.569 9.569 0 0 1 548.251 85.351 Q 550.673 85.351 550.922 91.75 A 39.954 39.954 0 0 1 550.951 93.301 A 37.637 37.637 0 0 1 549.649 103.404 A 30.445 30.445 0 0 1 545.026 113.101 A 21.409 21.409 0 0 1 540.087 118.128 A 17.543 17.543 0 0 1 529.651 121.351 A 21.888 21.888 0 0 1 521.13 119.734 A 20.584 20.584 0 0 1 513.976 114.676 A 22.87 22.87 0 0 1 508.071 102.063 A 31.475 31.475 0 0 1 507.751 97.501 Z M 490.258 24.086 A 31.507 31.507 0 0 0 490.801 18.301 Q 490.801 7.601 486.812 6.097 A 3.968 3.968 0 0 0 485.401 5.851 Q 482.401 5.851 481.501 12.751 A 62.46 62.46 0 0 0 481.15 16.602 Q 480.603 24.93 480.601 43.783 A 1304.302 1304.302 0 0 0 480.601 43.951 Q 488.448 33.797 490.258 24.086 Z" id="7" vector-effect="non-scaling-stroke"/>
		<path d="M 603.301 55.201 L 603.301 98.251 A 43.807 43.807 0 0 0 603.515 102.728 Q 604.012 107.553 605.666 110.577 A 12.117 12.117 0 0 0 606.001 111.151 A 10.434 10.434 0 0 0 608.035 113.583 A 7.879 7.879 0 0 0 613.351 115.501 Q 625.483 115.501 627.176 93.845 A 97.781 97.781 0 0 0 627.451 86.251 A 0.809 0.809 0 0 1 627.877 85.679 Q 628.431 85.353 629.688 85.351 A 9.569 9.569 0 0 1 629.701 85.351 Q 632.123 85.351 632.372 91.75 A 39.954 39.954 0 0 1 632.401 93.301 Q 632.401 102.913 629.289 109.627 A 25.158 25.158 0 0 1 626.926 113.701 A 17.438 17.438 0 0 1 614.248 121.2 A 23.407 23.407 0 0 1 611.551 121.351 A 26.157 26.157 0 0 1 603.645 120.236 Q 595.656 117.709 592.04 109.46 A 27.089 27.089 0 0 1 591.451 108.001 A 26.463 26.463 0 0 1 587.58 114.113 A 22.792 22.792 0 0 1 583.651 117.751 Q 578.701 121.351 572.401 121.351 Q 546.151 121.351 546.151 87.001 Q 546.151 76.137 549.338 68.84 A 24.354 24.354 0 0 1 554.326 61.351 A 27.397 27.397 0 0 1 569.964 53.555 A 38.699 38.699 0 0 1 576.001 53.101 Q 585.494 53.101 589.939 56.76 A 10.632 10.632 0 0 1 590.701 57.451 A 8.945 8.945 0 0 1 592.053 55.264 A 6.115 6.115 0 0 1 596.926 53.101 Q 599.698 53.101 601.556 53.984 A 6.218 6.218 0 0 1 603.301 55.201 Z M 589.651 95.251 L 589.651 74.701 A 22.037 22.037 0 0 0 589.134 69.793 A 15.085 15.085 0 0 0 585.976 63.301 A 14.79 14.79 0 0 0 583.467 60.915 A 9.499 9.499 0 0 0 577.726 58.951 Q 573.176 58.951 570.481 59.841 A 11.275 11.275 0 0 0 570.451 59.851 Q 567.751 60.751 565.351 63.601 A 13.019 13.019 0 0 0 562.972 67.6 Q 560.51 73.755 560.406 85.909 A 126.739 126.739 0 0 0 560.401 87.001 Q 560.401 98.851 562.501 105.451 Q 564.091 110.45 566.026 112.652 A 6.069 6.069 0 0 0 567.301 113.776 Q 570.001 115.501 574.501 115.501 A 8.716 8.716 0 0 0 578.067 114.677 Q 581.04 113.348 584.326 109.876 A 19.135 19.135 0 0 0 589.318 99.54 A 26.611 26.611 0 0 0 589.651 95.251 Z" id="8" vector-effect="non-scaling-stroke"/>
		<path d="M 668.401 93.751 L 668.401 76.201 Q 668.401 65.586 665.218 61.283 A 6.872 6.872 0 0 0 659.401 58.351 A 13.862 13.862 0 0 0 648.921 63.075 A 22.494 22.494 0 0 0 646.351 66.451 Q 641.251 74.551 641.251 93.601 L 641.251 119.251 A 4.578 4.578 0 0 1 639.043 120.882 Q 638.25 121.175 637.26 121.285 A 11.415 11.415 0 0 1 636.001 121.351 A 9.798 9.798 0 0 1 633.35 121.01 A 7.324 7.324 0 0 1 630.001 119.026 A 7.405 7.405 0 0 1 628.287 116.077 Q 627.919 114.923 627.803 113.524 A 16.121 16.121 0 0 1 627.751 112.201 L 627.751 55.201 A 4.349 4.349 0 0 1 629.622 53.747 Q 631.076 53.121 633.311 53.102 A 16.523 16.523 0 0 1 633.451 53.101 A 7.498 7.498 0 0 1 637.309 54.041 Q 641.251 56.353 641.251 64.351 A 21.892 21.892 0 0 1 647.985 56.785 Q 653.39 53.101 661.201 53.101 A 25.044 25.044 0 0 1 667.955 53.966 A 18.697 18.697 0 0 1 676.726 59.251 Q 682.501 65.401 682.501 76.951 L 682.501 98.251 A 43.807 43.807 0 0 0 682.715 102.728 Q 683.212 107.553 684.866 110.577 A 12.117 12.117 0 0 0 685.201 111.151 A 9.164 9.164 0 0 0 688.111 114.153 Q 689.892 115.269 692.231 115.461 A 12.169 12.169 0 0 0 693.226 115.501 A 8.61 8.61 0 0 0 698.633 113.533 Q 699.956 112.498 701.175 110.918 A 22.668 22.668 0 0 0 702.601 108.826 Q 706.651 102.151 706.651 86.251 A 0.809 0.809 0 0 1 707.077 85.679 Q 707.631 85.353 708.888 85.351 A 9.569 9.569 0 0 1 708.901 85.351 Q 711.323 85.351 711.572 91.75 A 39.954 39.954 0 0 1 711.601 93.301 Q 711.601 102.913 708.489 109.627 A 25.158 25.158 0 0 1 706.126 113.701 Q 700.651 121.351 690.151 121.351 A 24.428 24.428 0 0 1 683.371 120.461 A 17.845 17.845 0 0 1 674.026 114.151 Q 669.555 108.428 668.638 98.913 A 53.857 53.857 0 0 1 668.401 93.751 Z" id="9" vector-effect="non-scaling-stroke"/>
	</g>
</svg>